REM DIRINDEX 1\2\6,1\2\7,1\2\8,1\2\9,1\3\10,1\3\11,1\4\12,1\4\13,1\4\14,1\5\15,1\5\16,1\5\17
REM DIRNAME folder01,folder02,folder03,folder04,folder05,folder06,folder07,folder08,folder09,folder10,folder11,folder12,folder13,folder14,folder15,folder16,folder17
TITLE ""
FILE "1900_3_101 sec18_1701_1718.mp3" MP3
  TRACK 01 AUDIO
    TITLE "0:"
    INDEX 01 00:00:00
  TRACK 02 AUDIO
    TITLE "15:cjc020_9386"
    INDEX 01 00:00:15
  TRACK 03 AUDIO
    TITLE "0:"
    INDEX 01 00:02:16
  TRACK 04 AUDIO
    TITLE "17:cjc020_9387"
    INDEX 01 00:03:23
  TRACK 05 AUDIO
    TITLE "0:"
    INDEX 01 00:05:61
  TRACK 06 AUDIO
    TITLE "16:cjc020_9388"
    INDEX 01 00:05:69
  TRACK 07 AUDIO
    TITLE "0:"
    INDEX 01 00:07:29
  TRACK 08 AUDIO
    TITLE "17:cjc020_9389"
    INDEX 01 00:08:15
  TRACK 09 AUDIO
    TITLE "0:"
    INDEX 01 00:09:40
  TRACK 10 AUDIO
    TITLE "16:cjc020_9390"
    INDEX 01 00:09:49
  TRACK 11 AUDIO
    TITLE "0:"
    INDEX 01 00:10:53
  TRACK 12 AUDIO
    TITLE "17:cjc020_9391"
    INDEX 01 00:11:39
  TRACK 13 AUDIO
    TITLE "0:"
    INDEX 01 00:12:63
  TRACK 14 AUDIO
    TITLE "16:cjc020_9392"
    INDEX 01 00:12:67
  TRACK 15 AUDIO
    TITLE "0:"
    INDEX 01 00:14:13
  TRACK 16 AUDIO
    TITLE "17:cjc020_9393"
    INDEX 01 00:14:74
  TRACK 17 AUDIO
    TITLE "0:"
    INDEX 01 00:16:14
  TRACK 18 AUDIO
    TITLE "16:cjc020_9394"
    INDEX 01 00:16:22
  TRACK 19 AUDIO
    TITLE "0:"
    INDEX 01 00:17:35
  TRACK 20 AUDIO
    TITLE "17:cjc020_9395"
    INDEX 01 00:18:23
  TRACK 21 AUDIO
    TITLE "0:"
    INDEX 01 00:19:52
  TRACK 22 AUDIO
    TITLE "16:cjc020_9396"
    INDEX 01 00:19:60
  TRACK 23 AUDIO
    TITLE "0:"
    INDEX 01 00:21:11
  TRACK 24 AUDIO
    TITLE "17:cjc020_9397"
    INDEX 01 00:21:72
  TRACK 25 AUDIO
    TITLE "0:"
    INDEX 01 00:23:34
  TRACK 26 AUDIO
    TITLE "16:cjc020_9398"
    INDEX 01 00:23:36
  TRACK 27 AUDIO
    TITLE "0:"
    INDEX 01 00:24:49
  TRACK 28 AUDIO
    TITLE "17:cjc020_9399"
    INDEX 01 00:25:35
  TRACK 29 AUDIO
    TITLE "0:"
    INDEX 01 00:26:62
  TRACK 30 AUDIO
    TITLE "16:cjc020_9400"
    INDEX 01 00:26:73
  TRACK 31 AUDIO
    TITLE "0:"
    INDEX 01 00:28:10
  TRACK 32 AUDIO
    TITLE "17:cjc020_9401"
    INDEX 01 00:28:68
  TRACK 33 AUDIO
    TITLE "0:"
    INDEX 01 00:30:14
  TRACK 34 AUDIO
    TITLE "16:cjc020_9402"
    INDEX 01 00:30:24
  TRACK 35 AUDIO
    TITLE "0:"
    INDEX 01 00:31:41
  TRACK 36 AUDIO
    TITLE "17:cjc020_9403"
    INDEX 01 00:32:25
  TRACK 37 AUDIO
    TITLE "0:"
    INDEX 01 00:33:26
  TRACK 38 AUDIO
    TITLE "16:cjc020_9404"
    INDEX 01 00:33:30
  TRACK 39 AUDIO
    TITLE "0:"
    INDEX 01 00:34:38
  TRACK 40 AUDIO
    TITLE "17:cjc020_9405"
    INDEX 01 00:35:23
  TRACK 41 AUDIO
    TITLE "0:"
    INDEX 01 00:36:29
  TRACK 42 AUDIO
    TITLE "16:cjc020_9406"
    INDEX 01 00:36:33
  TRACK 43 AUDIO
    TITLE "0:"
    INDEX 01 00:37:52
  TRACK 44 AUDIO
    TITLE "17:cjc020_9407"
    INDEX 01 00:38:39
  TRACK 45 AUDIO
    TITLE "0:"
    INDEX 01 00:40:17
  TRACK 46 AUDIO
    TITLE "16:cjc020_9408"
    INDEX 01 00:40:28
  TRACK 47 AUDIO
    TITLE "0:"
    INDEX 01 00:41:53
  TRACK 48 AUDIO
    TITLE "17:cjc020_9409"
    INDEX 01 00:42:41
  TRACK 49 AUDIO
    TITLE "0:"
    INDEX 01 00:43:42
  TRACK 50 AUDIO
    TITLE "16:cjc020_9410"
    INDEX 01 00:43:44
  TRACK 51 AUDIO
    TITLE "0:"
    INDEX 01 00:44:46
  TRACK 52 AUDIO
    TITLE "17:cjc020_9411"
    INDEX 01 00:45:33
  TRACK 53 AUDIO
    TITLE "0:"
    INDEX 01 00:46:56
  TRACK 54 AUDIO
    TITLE "16:cjc020_9412"
    INDEX 01 00:46:58
  TRACK 55 AUDIO
    TITLE "0:"
    INDEX 01 00:47:70
  TRACK 56 AUDIO
    TITLE "17:cjc020_9413"
    INDEX 01 00:48:51
  TRACK 57 AUDIO
    TITLE "0:"
    INDEX 01 00:50:11
  TRACK 58 AUDIO
    TITLE "16:cjc020_9414"
    INDEX 01 00:50:17
  TRACK 59 AUDIO
    TITLE "0:"
    INDEX 01 00:51:26
  TRACK 60 AUDIO
    TITLE "17:cjc020_9415"
    INDEX 01 00:52:12
  TRACK 61 AUDIO
    TITLE "0:"
    INDEX 01 00:53:09
  TRACK 62 AUDIO
    TITLE "16:cjc020_9416"
    INDEX 01 00:53:19
  TRACK 63 AUDIO
    TITLE "0:"
    INDEX 01 00:54:25
  TRACK 64 AUDIO
    TITLE "17:cjc020_9417"
    INDEX 01 00:55:10
  TRACK 65 AUDIO
    TITLE "0:"
    INDEX 01 00:56:02
  TRACK 66 AUDIO
    TITLE "16:cjc020_9418"
    INDEX 01 00:56:10
  TRACK 67 AUDIO
    TITLE "0:"
    INDEX 01 00:57:09
  TRACK 68 AUDIO
    TITLE "17:cjc020_9419"
    INDEX 01 00:57:68
  TRACK 69 AUDIO
    TITLE "0:"
    INDEX 01 00:58:71
  TRACK 70 AUDIO
    TITLE "16:cjc020_9420"
    INDEX 01 00:59:06
  TRACK 71 AUDIO
    TITLE "0:"
    INDEX 01 01:00:02
  TRACK 72 AUDIO
    TITLE "17:cjc020_9421"
    INDEX 01 01:00:64
  TRACK 73 AUDIO
    TITLE "0:"
    INDEX 01 01:02:67
  TRACK 74 AUDIO
    TITLE "16:cjc020_9422"
    INDEX 01 01:02:73
  TRACK 75 AUDIO
    TITLE "0:"
    INDEX 01 01:04:05
